<?xml version="1.0" encoding="iso-8859-1"?>
<!-- Uploaded to: SVG Repo, www.svgrepo.com, Generator: SVG Repo Mixer Tools -->
<!DOCTYPE svg PUBLIC "-//W3C//DTD SVG 1.1//EN" "http://www.w3.org/Graphics/SVG/1.1/DTD/svg11.dtd">
<svg fill="#000000" version="1.1" id="Capa_1" xmlns="http://www.w3.org/2000/svg" xmlns:xlink="http://www.w3.org/1999/xlink" 
	 width="800px" height="800px" viewBox="0 0 50.912 50.912"
	 xml:space="preserve">
<g>
	<g>
		<path d="M20.073,11.908h-9.322c-3.457,0-6.268,2.812-6.268,6.27v1.761h6.742C13.002,16.231,16.178,13.329,20.073,11.908z"/>
		<path d="M40.161,11.908h-9.319c3.896,1.419,7.069,4.323,8.85,8.03h6.742v-1.76C46.43,14.722,43.617,11.908,40.161,11.908z"/>
		<circle cx="43.082" cy="38.518" r="1.745"/>
		<path d="M40.161,7.427h-7.183c-0.279-1.431-2.959-2.553-4.42-2.553h-6.205c-1.461,0-4.141,1.122-4.42,2.553h-2.051
			c-0.117-0.886-0.867-1.569-1.785-1.569H8.41c-1,0-1.811,0.81-1.811,1.81c0,0.196,0.041,0.382,0.098,0.56
			C2.773,9.833,0,13.686,0,18.179v17.105c0,5.931,4.822,10.753,10.75,10.753h29.41c5.929,0,10.752-4.822,10.752-10.753V18.178
			C50.912,12.25,46.088,7.427,40.161,7.427z M47.604,35.285c0,4.104-3.338,7.443-7.442,7.443H10.753
			c-4.104,0-7.441-3.339-7.441-7.443V18.179c0-4.104,3.338-7.441,7.441-7.441H40.16c4.105,0,7.443,3.338,7.443,7.441V35.285
			L47.604,35.285z"/>
		<path d="M25.457,17.77c-4.948,0-8.963,4.013-8.963,8.962c0,4.948,4.015,8.961,8.963,8.961c4.949,0,8.964-4.012,8.964-8.961
			C34.42,21.781,30.406,17.77,25.457,17.77z M25.866,34.765c-0.17,0.534-1.451,0.604-2.858,0.153
			c-1.406-0.448-2.41-1.243-2.24-1.777c0.17-0.534,1.449-0.604,2.856-0.155C25.032,33.433,26.036,34.23,25.866,34.765z
			 M30.299,21.561c-0.291,0.906-1.666,1.275-3.074,0.828c-1.406-0.449-2.313-1.546-2.025-2.452c0.289-0.906,1.664-1.276,3.072-0.828
			C29.68,19.558,30.588,20.654,30.299,21.561z"/>
		<path d="M25.457,12.598c-7.795,0-14.135,6.34-14.135,14.134c0,7.795,6.34,14.135,14.135,14.135c7.793,0,14.136-6.34,14.136-14.135
			C39.593,18.938,33.25,12.598,25.457,12.598z M25.457,37.557c-5.971,0-10.825-4.856-10.825-10.825s4.854-10.825,10.825-10.825
			c5.97,0,10.824,4.856,10.824,10.825S31.426,37.557,25.457,37.557z"/>
	</g>
</g>
</svg>