<svg width="55" height="55" viewBox="0 0 55 55" fill="none" xmlns="http://www.w3.org/2000/svg">
<path d="M27.6355 46.4583L35.3542 38.8073L27.6355 31.1562L24.7917 34L27.7032 36.9115C26.4393 36.9566 25.2097 36.7535 24.0145 36.3021C22.8192 35.8507 21.7467 35.151 20.797 34.2031C19.8942 33.3003 19.2054 32.2621 18.7305 31.0885C18.2556 29.9149 18.0191 28.7413 18.0209 27.5677C18.0209 26.8003 18.1229 26.033 18.327 25.2656C18.531 24.4983 18.8127 23.7535 19.172 23.0312L16.1928 20.0521C15.4254 21.1806 14.8612 22.3767 14.5001 23.6406C14.139 24.9045 13.9584 26.191 13.9584 27.5C13.9584 29.2153 14.297 30.908 14.974 32.5781C15.6511 34.2483 16.6442 35.7378 17.9532 37.0469C19.2622 38.3559 20.7292 39.3381 22.3542 39.9935C23.9792 40.649 25.6494 40.9983 27.3647 41.0417L24.7917 43.6146L27.6355 46.4583ZM38.8074 34.9479C39.5747 33.8194 40.139 32.6233 40.5001 31.3594C40.8612 30.0955 41.0417 28.809 41.0417 27.5C41.0417 25.7847 40.714 24.0803 40.0586 22.3867C39.4032 20.6931 38.4219 19.1926 37.1147 17.8854C35.8056 16.5764 34.3269 15.6059 32.6784 14.974C31.0299 14.342 29.349 14.026 27.6355 14.026L30.2084 11.3854L27.3647 8.54166L19.6459 16.1927L27.3647 23.8437L30.2084 21L27.2292 18.0208C28.448 18.0208 29.6893 18.2583 30.9532 18.7331C32.2171 19.208 33.3004 19.8959 34.2032 20.7969C35.106 21.6996 35.7948 22.7378 36.2697 23.9115C36.7445 25.0851 36.9811 26.2587 36.9792 27.4323C36.9792 28.1996 36.8781 28.967 36.6759 29.7344C36.4737 30.5017 36.1911 31.2465 35.8282 31.9687L38.8074 34.9479ZM27.5001 54.5833C23.7536 54.5833 20.2327 53.8719 16.9376 52.4492C13.6424 51.0264 10.7761 49.0972 8.33862 46.6615C5.90112 44.224 3.97189 41.3576 2.55092 38.0625C1.12994 34.7674 0.418554 31.2465 0.416748 27.5C0.416748 23.7535 1.12814 20.2326 2.55092 16.9375C3.97369 13.6424 5.90293 10.776 8.33862 8.33854C10.7761 5.90104 13.6424 3.9718 16.9376 2.55083C20.2327 1.12986 23.7536 0.41847 27.5001 0.416664C31.2466 0.416664 34.7674 1.12805 38.0626 2.55083C41.3577 3.97361 44.224 5.90284 46.6615 8.33854C49.099 10.776 51.0292 13.6424 52.452 16.9375C53.8747 20.2326 54.5852 23.7535 54.5834 27.5C54.5834 31.2465 53.872 34.7674 52.4492 38.0625C51.0265 41.3576 49.0972 44.224 46.6615 46.6615C44.224 49.099 41.3577 51.0291 38.0626 52.4519C34.7674 53.8746 31.2466 54.5851 27.5001 54.5833Z" fill="#96E8DE"/>
</svg>
