<svg width="52" height="55" viewBox="0 0 52 55" fill="none" xmlns="http://www.w3.org/2000/svg">
<path d="M22.8176 54.5833C21.5988 54.5833 20.5498 54.1771 19.6705 53.3646C18.7912 52.5521 18.2604 51.559 18.078 50.3854L17.4686 45.9167C16.8818 45.691 16.3293 45.4201 15.8111 45.1042C15.2929 44.7882 14.7847 44.4496 14.2863 44.0885L10.0884 45.8489C8.95996 46.3455 7.83148 46.3906 6.70301 45.9844C5.57454 45.5781 4.69433 44.8559 4.06239 43.8177L0.880094 38.2656C0.24815 37.2274 0.0675945 36.1215 0.338428 34.9479C0.609261 33.7743 1.21864 32.8038 2.16655 32.0365L5.7551 29.3281C5.70996 29.0121 5.68739 28.707 5.68739 28.4127V26.5846C5.68739 26.2921 5.70996 25.9878 5.7551 25.6719L2.16655 22.9635C1.21864 22.1962 0.609261 21.2257 0.338428 20.0521C0.0675945 18.8785 0.24815 17.7726 0.880094 16.7344L4.06239 11.1823C4.69433 10.1441 5.57454 9.42187 6.70301 9.01562C7.83148 8.60937 8.95996 8.6545 10.0884 9.15103L14.2863 10.9114C14.7829 10.5503 15.302 10.2118 15.8436 9.89582C16.3853 9.57985 16.927 9.30902 17.4686 9.08332L18.078 4.61457C18.2586 3.44096 18.7894 2.44791 19.6705 1.63541C20.5516 0.822907 21.6006 0.416656 22.8176 0.416656H29.1822C30.4009 0.416656 31.4509 0.822907 32.332 1.63541C33.2131 2.44791 33.743 3.44096 33.9218 4.61457L34.5311 9.08332C35.1179 9.30902 35.6713 9.57985 36.1913 9.89582C36.7113 10.2118 37.2187 10.5503 37.7134 10.9114L41.9113 9.15103C43.0398 8.6545 44.1683 8.60937 45.2968 9.01562C46.4252 9.42187 47.3054 10.1441 47.9374 11.1823L51.1197 16.7344C51.7516 17.7726 51.9322 18.8785 51.6614 20.0521C51.3905 21.2257 50.7811 22.1962 49.8332 22.9635L46.2447 25.6719C46.2898 25.9878 46.3124 26.293 46.3124 26.5873V28.4127C46.3124 28.707 46.2673 29.0121 46.177 29.3281L49.7655 32.0365C50.7134 32.8038 51.3228 33.7743 51.5936 34.9479C51.8645 36.1215 51.6839 37.2274 51.052 38.2656L47.802 43.8177C47.17 44.8559 46.2898 45.5781 45.1614 45.9844C44.0329 46.3906 42.9044 46.3455 41.7759 45.8489L37.7134 44.0885C37.2169 44.4496 36.6978 44.7882 36.1561 45.1042C35.6145 45.4201 35.0728 45.691 34.5311 45.9167L33.9218 50.3854C33.7412 51.559 33.2113 52.5521 32.332 53.3646C31.4527 54.1771 30.4027 54.5833 29.1822 54.5833H22.8176ZM26.1353 36.9792C28.7534 36.9792 30.9877 36.0538 32.8384 34.2031C34.6891 32.3524 35.6145 30.118 35.6145 27.5C35.6145 24.8819 34.6891 22.6476 32.8384 20.7969C30.9877 18.9462 28.7534 18.0208 26.1353 18.0208C23.4721 18.0208 21.226 18.9462 19.397 20.7969C17.5679 22.6476 16.6543 24.8819 16.6561 27.5C16.6561 30.118 17.5707 32.3524 19.3997 34.2031C21.2287 36.0538 23.4739 36.9792 26.1353 36.9792Z" fill="white"/>
</svg>
