<svg width="45" height="40" viewBox="0 0 45 40" fill="none" xmlns="http://www.w3.org/2000/svg">
<path d="M31.0224 38.375C30.5394 38.375 30.1349 38.2083 29.8087 37.875C29.4826 37.5416 29.319 37.1389 29.3178 36.6666C29.3178 36.1944 29.4815 35.7989 29.8087 35.48C30.136 35.1611 30.5406 35.0011 31.0224 35C32.8974 35 34.5025 34.3472 35.8377 33.0416C37.1729 31.7361 37.8406 30.1666 37.8406 28.3333C37.8406 27.8611 38.011 27.4583 38.3519 27.125C38.6928 26.7916 39.1048 26.625 39.5877 26.625C40.0707 26.625 40.4758 26.7916 40.8031 27.125C41.1303 27.4583 41.2934 27.8611 41.2923 28.3333C41.2923 31.1111 40.2911 33.4794 38.2889 35.4383C36.2866 37.3972 33.8644 38.3761 31.0224 38.375ZM5.45419 13.3333C4.97124 13.3333 4.5593 13.1733 4.21839 12.8533C3.87749 12.5333 3.70703 12.1377 3.70703 11.6666C3.70703 8.88885 4.70874 6.52107 6.71215 4.56329C8.71555 2.60551 11.1371 1.62551 13.9769 1.62329C14.4599 1.62329 14.8718 1.78329 15.2127 2.10329C15.5536 2.42329 15.7241 2.81885 15.7241 3.28996C15.7241 3.76218 15.5536 4.16496 15.2127 4.49829C14.8718 4.83162 14.4599 4.99885 13.9769 4.99996C12.1019 4.99996 10.4968 5.65274 9.16158 6.95829C7.82635 8.26385 7.15874 9.83329 7.15874 11.6666C7.15874 12.1388 6.9951 12.535 6.66783 12.855C6.34055 13.175 5.93601 13.3344 5.45419 13.3333ZM11.0792 31.2083C8.49396 28.6805 7.20135 25.6388 7.20135 22.0833C7.20135 18.5277 8.49396 15.4861 11.0792 12.9583L13.5508 10.5C13.6928 10.3611 13.8633 10.2916 14.0621 10.2916C14.261 10.2916 14.4315 10.3611 14.5735 10.5C15.3974 11.3055 15.8093 12.2844 15.8093 13.4366C15.8093 14.5888 15.3974 15.5688 14.5735 16.3766L13.9769 16.96C13.636 17.2933 13.4656 17.6894 13.4656 18.1483C13.4656 18.6072 13.636 19.0027 13.9769 19.335L15.511 20.835C16.2496 21.5572 16.619 22.4322 16.619 23.46C16.619 24.4877 16.2496 25.3622 15.511 26.0833C15.2553 26.3333 15.1275 26.6322 15.1275 26.98C15.1275 27.3277 15.2553 27.6261 15.511 27.875C15.7667 28.125 16.0724 28.25 16.4281 28.25C16.7837 28.25 17.0889 28.125 17.3434 27.875C18.5934 26.6527 19.2184 25.1877 19.2184 23.48C19.2184 21.7722 18.5792 20.2927 17.3008 19.0416L16.3633 18.125C17.1019 17.4027 17.6275 16.59 17.94 15.6866C18.2525 14.7833 18.3803 13.86 18.3235 12.9166L25.9514 5.45829C26.2923 5.12496 26.6974 4.95829 27.1667 4.95829C27.636 4.95829 28.0406 5.12496 28.3803 5.45829C28.7212 5.79163 28.8917 6.18718 28.8917 6.64496C28.8917 7.10274 28.7212 7.49885 28.3803 7.83329L20.4116 15.625L22.2014 17.375L32.4712 7.37496C32.8121 7.04163 33.2099 6.87496 33.6644 6.87496C34.119 6.87496 34.5167 7.04163 34.8576 7.37496C35.1985 7.70829 35.369 8.09718 35.369 8.54163C35.369 8.98607 35.1985 9.37496 34.8576 9.70829L24.6303 19.75L26.4201 21.5L35.4542 12.6666C35.7951 12.3333 36.2002 12.1666 36.6695 12.1666C37.1389 12.1666 37.5434 12.3333 37.8832 12.6666C38.2241 13 38.3945 13.3961 38.3945 13.855C38.3945 14.3138 38.2241 14.7094 37.8832 15.0416L28.8491 23.875L30.6389 25.625L37.5423 18.875C37.8832 18.5416 38.2883 18.375 38.7576 18.375C39.2269 18.375 39.6315 18.5416 39.9712 18.875C40.3121 19.2083 40.4826 19.6044 40.4826 20.0633C40.4826 20.5222 40.3121 20.9177 39.9712 21.25L29.744 31.2083C27.1587 33.7361 24.0479 35 20.4116 35C16.7752 35 13.6644 33.7361 11.0792 31.2083Z" fill="#60A79F"/>
</svg>
