<svg width="45" height="40" viewBox="0 0 45 40" fill="none" xmlns="http://www.w3.org/2000/svg">
<path d="M31.0229 38.3747C30.5399 38.3747 30.1354 38.208 29.8092 37.8747C29.4831 37.5414 29.3195 37.1386 29.3183 36.6664C29.3183 36.1942 29.482 35.7986 29.8092 35.4797C30.1365 35.1608 30.541 35.0008 31.0229 34.9997C32.8979 34.9997 34.503 34.3469 35.8382 33.0414C37.1734 31.7358 37.841 30.1664 37.841 28.3331C37.841 27.8608 38.0115 27.458 38.3524 27.1247C38.6933 26.7914 39.1052 26.6247 39.5882 26.6247C40.0712 26.6247 40.4763 26.7914 40.8035 27.1247C41.1308 27.458 41.2939 27.8608 41.2927 28.3331C41.2927 31.1108 40.2916 33.4792 38.2893 35.4381C36.2871 37.3969 33.8649 38.3758 31.0229 38.3747ZM5.45468 13.333C4.97172 13.333 4.55979 13.173 4.21888 12.853C3.87797 12.533 3.70752 12.1375 3.70752 11.6664C3.70752 8.8886 4.70922 6.52082 6.71263 4.56305C8.71604 2.60527 11.1376 1.62527 13.9774 1.62305C14.4604 1.62305 14.8723 1.78305 15.2132 2.10305C15.5541 2.42305 15.7246 2.8186 15.7246 3.28971C15.7246 3.76194 15.5541 4.16471 15.2132 4.49805C14.8723 4.83138 14.4604 4.9986 13.9774 4.99971C12.1024 4.99971 10.4973 5.65249 9.16207 6.95805C7.82684 8.2636 7.15922 9.83305 7.15922 11.6664C7.15922 12.1386 6.99559 12.5347 6.66831 12.8547C6.34104 13.1747 5.9365 13.3342 5.45468 13.333ZM11.0797 31.208C8.49445 28.6803 7.20184 25.6386 7.20184 22.083C7.20184 18.5275 8.49445 15.4858 11.0797 12.958L13.5513 10.4997C13.6933 10.3608 13.8638 10.2914 14.0626 10.2914C14.2615 10.2914 14.432 10.3608 14.574 10.4997C15.3979 11.3053 15.8098 12.2842 15.8098 13.4364C15.8098 14.5886 15.3979 15.5686 14.574 16.3764L13.9774 16.9597C13.6365 17.293 13.466 17.6892 13.466 18.148C13.466 18.6069 13.6365 19.0025 13.9774 19.3347L15.5115 20.8347C16.2501 21.5569 16.6195 22.4319 16.6195 23.4597C16.6195 24.4875 16.2501 25.3619 15.5115 26.083C15.2558 26.333 15.128 26.6319 15.128 26.9797C15.128 27.3275 15.2558 27.6258 15.5115 27.8747C15.7672 28.1247 16.0729 28.2497 16.4285 28.2497C16.7842 28.2497 17.0893 28.1247 17.3439 27.8747C18.5939 26.6525 19.2189 25.1875 19.2189 23.4797C19.2189 21.7719 18.5797 20.2925 17.3013 19.0414L16.3638 18.1247C17.1024 17.4025 17.628 16.5897 17.9405 15.6864C18.253 14.783 18.3808 13.8597 18.324 12.9164L25.9518 5.45805C26.2927 5.12471 26.6979 4.95805 27.1672 4.95805C27.6365 4.95805 28.041 5.12471 28.3808 5.45805C28.7217 5.79138 28.8922 6.18694 28.8922 6.64471C28.8922 7.10249 28.7217 7.4986 28.3808 7.83305L20.4121 15.6247L22.2018 17.3747L32.4717 7.37471C32.8126 7.04138 33.2104 6.87471 33.6649 6.87471C34.1195 6.87471 34.5172 7.04138 34.8581 7.37471C35.199 7.70805 35.3695 8.09694 35.3695 8.54138C35.3695 8.98583 35.199 9.37471 34.8581 9.70805L24.6308 19.7497L26.4206 21.4997L35.4547 12.6664C35.7956 12.333 36.2007 12.1664 36.67 12.1664C37.1393 12.1664 37.5439 12.333 37.8837 12.6664C38.2246 12.9997 38.395 13.3958 38.395 13.8547C38.395 14.3136 38.2246 14.7092 37.8837 15.0414L28.8496 23.8747L30.6393 25.6247L37.5428 18.8747C37.8837 18.5414 38.2888 18.3747 38.7581 18.3747C39.2274 18.3747 39.632 18.5414 39.9717 18.8747C40.3126 19.208 40.4831 19.6042 40.4831 20.063C40.4831 20.5219 40.3126 20.9175 39.9717 21.2497L29.7445 31.208C27.1592 33.7358 24.0484 34.9997 20.4121 34.9997C16.7757 34.9997 13.6649 33.7358 11.0797 31.208Z" fill="#1F333E"/>
</svg>
