<svg width="92" height="92" viewBox="0 0 92 92" fill="none" xmlns="http://www.w3.org/2000/svg">
<path d="M66.8333 91.9375C65.6528 91.9375 64.6639 91.5208 63.8667 90.6875C63.0694 89.8542 62.6694 88.8472 62.6667 87.6667C62.6667 86.4861 63.0667 85.4972 63.8667 84.7C64.6667 83.9028 65.6556 83.5028 66.8333 83.5C71.4167 83.5 75.3403 81.8681 78.6042 78.6042C81.8681 75.3403 83.5 71.4167 83.5 66.8333C83.5 65.6528 83.9167 64.6458 84.75 63.8125C85.5833 62.9792 86.5903 62.5625 87.7708 62.5625C88.9514 62.5625 89.9417 62.9792 90.7417 63.8125C91.5417 64.6458 91.9403 65.6528 91.9375 66.8333C91.9375 73.7778 89.4903 79.6986 84.5958 84.5958C79.7014 89.4931 73.7806 91.9403 66.8333 91.9375ZM4.33333 29.3333C3.15278 29.3333 2.14583 28.9333 1.3125 28.1333C0.479166 27.3333 0.0625 26.3444 0.0625 25.1667C0.0625 18.2222 2.51111 12.3028 7.40833 7.40833C12.3056 2.51389 18.225 0.0638899 25.1667 0.0583344C26.3472 0.0583344 27.3542 0.458334 28.1875 1.25833C29.0208 2.05833 29.4375 3.04722 29.4375 4.225C29.4375 5.40556 29.0208 6.4125 28.1875 7.24583C27.3542 8.07917 26.3472 8.49722 25.1667 8.5C20.5833 8.5 16.6597 10.1319 13.3958 13.3958C10.1319 16.6597 8.5 20.5833 8.5 25.1667C8.5 26.3472 8.1 27.3375 7.3 28.1375C6.5 28.9375 5.51111 29.3361 4.33333 29.3333ZM18.0833 74.0208C11.7639 67.7014 8.60417 60.0972 8.60417 51.2083C8.60417 42.3194 11.7639 34.7153 18.0833 28.3958L24.125 22.25C24.4722 21.9028 24.8889 21.7292 25.375 21.7292C25.8611 21.7292 26.2778 21.9028 26.625 22.25C28.6389 24.2639 29.6458 26.7111 29.6458 29.5917C29.6458 32.4722 28.6389 34.9222 26.625 36.9417L25.1667 38.4C24.3333 39.2333 23.9167 40.2236 23.9167 41.3708C23.9167 42.5181 24.3333 43.5069 25.1667 44.3375L28.9167 48.0875C30.7222 49.8931 31.625 52.0806 31.625 54.65C31.625 57.2195 30.7222 59.4056 28.9167 61.2083C28.2917 61.8333 27.9792 62.5806 27.9792 63.45C27.9792 64.3195 28.2917 65.0653 28.9167 65.6875C29.5417 66.3125 30.2889 66.625 31.1583 66.625C32.0278 66.625 32.7736 66.3125 33.3958 65.6875C36.4514 62.632 37.9792 58.9695 37.9792 54.7C37.9792 50.4306 36.4167 46.7319 33.2917 43.6042L31 41.3125C32.8056 39.507 34.0903 37.475 34.8542 35.2167C35.6181 32.9583 35.9306 30.65 35.7917 28.2917L54.4375 9.64584C55.2708 8.8125 56.2611 8.39583 57.4083 8.39583C58.5556 8.39583 59.5444 8.8125 60.375 9.64584C61.2083 10.4792 61.625 11.4681 61.625 12.6125C61.625 13.7569 61.2083 14.7472 60.375 15.5833L40.8958 35.0625L45.2708 39.4375L70.375 14.4375C71.2083 13.6042 72.1806 13.1875 73.2917 13.1875C74.4028 13.1875 75.375 13.6042 76.2083 14.4375C77.0417 15.2708 77.4583 16.2431 77.4583 17.3542C77.4583 18.4653 77.0417 19.4375 76.2083 20.2708L51.2083 45.375L55.5833 49.75L77.6667 27.6667C78.5 26.8333 79.4903 26.4167 80.6375 26.4167C81.7847 26.4167 82.7736 26.8333 83.6042 27.6667C84.4375 28.5 84.8542 29.4903 84.8542 30.6375C84.8542 31.7847 84.4375 32.7736 83.6042 33.6042L61.5208 55.6875L65.8958 60.0625L82.7708 43.1875C83.6042 42.3542 84.5945 41.9375 85.7417 41.9375C86.8889 41.9375 87.8778 42.3542 88.7083 43.1875C89.5417 44.0208 89.9583 45.0111 89.9583 46.1583C89.9583 47.3056 89.5417 48.2944 88.7083 49.125L63.7083 74.0208C57.3889 80.3403 49.7847 83.5 40.8958 83.5C32.0069 83.5 24.4028 80.3403 18.0833 74.0208Z" fill="white"/>
</svg>
