<svg width="66" height="65" viewBox="0 0 66 65" fill="none" xmlns="http://www.w3.org/2000/svg">
<path d="M16.75 37.9167C18.9166 37.9167 20.9027 38.5035 22.7083 39.6771C24.5138 40.8507 25.8454 42.4531 26.7031 44.4844L27.3802 46.0417H29.0729C30.9687 46.0417 32.5486 46.7079 33.8125 48.0404C35.0763 49.3729 35.7083 50.9636 35.7083 52.8125C35.7083 54.7083 35.0538 56.3108 33.7447 57.6198C32.4357 58.9288 30.8333 59.5833 28.9375 59.5833H16.75C13.7708 59.5833 11.2204 58.5226 9.09892 56.401C6.97739 54.2795 5.91663 51.7292 5.91663 48.75C5.91663 45.7257 6.97739 43.1636 9.09892 41.0638C11.2204 38.9639 13.7708 37.9149 16.75 37.9167ZM30.9687 8.125C30.1562 12.5938 30.4045 16.9614 31.7135 21.2279C33.0225 25.4944 35.2795 29.2292 38.4843 32.4323C41.6892 35.6372 45.4249 37.8941 49.6914 39.2031C53.9579 40.5122 58.3247 40.7604 62.7916 39.9479C61.618 46.3576 58.5711 51.6506 53.651 55.8269C48.7309 60.0031 43.0434 62.1581 36.5885 62.2917C38.0329 61.1181 39.1506 59.7079 39.9414 58.0613C40.7323 56.4146 41.1268 54.665 41.125 52.8125C41.125 49.7431 40.1662 47.0916 38.2487 44.8581C36.3312 42.6247 33.882 41.2813 30.901 40.8281C29.4566 38.2552 27.4822 36.224 24.9779 34.7344C22.4736 33.2448 19.7309 32.5 16.75 32.5C15.3055 32.5 13.8954 32.6806 12.5195 33.0417C11.1437 33.4028 9.84551 33.9444 8.62496 34.6667C8.71524 28.1215 10.8485 22.3663 15.0248 17.401C19.201 12.4358 24.5157 9.34375 30.9687 8.125Z" fill="white"/>
</svg>
