<svg width="66" height="65" viewBox="0 0 66 65" fill="none" xmlns="http://www.w3.org/2000/svg">
<path d="M33 32.5C30.0209 32.5 27.4705 31.4392 25.349 29.3177C23.2275 27.1962 22.1667 24.6458 22.1667 21.6667C22.1667 18.6875 23.2275 16.1372 25.349 14.0156C27.4705 11.8941 30.0209 10.8333 33 10.8333C35.9792 10.8333 38.5296 11.8941 40.6511 14.0156C42.7726 16.1372 43.8334 18.6875 43.8334 21.6667C43.8334 24.6458 42.7726 27.1962 40.6511 29.3177C38.5296 31.4392 35.9792 32.5 33 32.5ZM11.3334 54.1667V46.5833C11.3334 45.0486 11.7288 43.6385 12.5196 42.3529C13.3105 41.0674 14.3595 40.0852 15.6667 39.4063C18.4653 38.007 21.3091 36.9579 24.198 36.2592C27.0868 35.5604 30.0209 35.2101 33 35.2083C35.9792 35.2083 38.9132 35.5586 41.8021 36.2592C44.691 36.9597 47.5348 38.0088 50.3334 39.4063C51.6424 40.0833 52.6923 41.0656 53.4832 42.3529C54.274 43.6403 54.6685 45.0504 54.6667 46.5833V54.1667H11.3334Z" fill="white"/>
</svg>
