<svg width="70" height="70" viewBox="0 0 70 70" fill="none" xmlns="http://www.w3.org/2000/svg">
<path d="M35 42.7778C32.8611 42.7778 31.0307 42.0156 29.5089 40.4911C27.9844 38.9693 27.2222 37.1389 27.2222 35C27.2222 32.8611 27.9844 31.0294 29.5089 29.505C31.0307 27.9831 32.8611 27.2222 35 27.2222C37.1389 27.2222 38.9706 27.9831 40.495 29.505C42.0169 31.0294 42.7778 32.8611 42.7778 35C42.7778 37.1389 42.0169 38.9693 40.495 40.4911C38.9706 42.0156 37.1389 42.7778 35 42.7778ZM35 70C26.8981 70 19.7361 67.5694 13.5139 62.7083C7.29167 57.8472 3.17593 51.5926 1.16667 43.9444C0.842592 42.5833 1.05389 41.3998 1.80056 40.3939C2.54463 39.3906 3.56481 38.8889 4.86111 38.8889C5.76852 38.8889 6.59556 39.213 7.34222 39.8611C8.0863 40.5093 8.58796 41.287 8.84722 42.1944C10.338 48.0926 13.5139 52.9044 18.375 56.63C23.2361 60.3581 28.7778 62.2222 35 62.2222C42.5833 62.2222 49.0156 59.5804 54.2967 54.2967C59.5804 49.0156 62.2222 42.5833 62.2222 35C62.2222 27.4167 59.5804 20.9831 54.2967 15.6994C49.0156 10.4183 42.5833 7.77778 35 7.77778C30.5278 7.77778 26.3472 8.81482 22.4583 10.8889C18.5694 12.963 15.2963 15.8148 12.6389 19.4444H19.4444C20.5463 19.4444 21.4706 19.8165 22.2172 20.5606C22.9613 21.3072 23.3333 22.2315 23.3333 23.3333C23.3333 24.4352 22.9613 25.3581 22.2172 26.1022C21.4706 26.8489 20.5463 27.2222 19.4444 27.2222H3.88889C2.78704 27.2222 1.86407 26.8489 1.12 26.1022C0.373334 25.3581 0 24.4352 0 23.3333V7.77778C0 6.67593 0.373334 5.75167 1.12 5.005C1.86407 4.26093 2.78704 3.88889 3.88889 3.88889C4.99074 3.88889 5.915 4.26093 6.66167 5.005C7.40574 5.75167 7.77778 6.67593 7.77778 7.77778V13.0278C11.0833 8.87963 15.1187 5.6713 19.8839 3.40278C24.6465 1.13426 29.6852 0 35 0C39.8611 0 44.415 0.922963 48.6617 2.76889C52.9057 4.61741 56.6002 7.11278 59.745 10.255C62.8872 13.3998 65.3826 17.0943 67.2311 21.3383C69.077 25.585 70 30.1389 70 35C70 39.8611 69.077 44.4137 67.2311 48.6578C65.3826 52.9044 62.8872 56.5989 59.745 59.7411C56.6002 62.8859 52.9057 65.3826 48.6617 67.2311C44.415 69.077 39.8611 70 35 70Z" fill="#2A464E"/>
</svg>
