<svg width="84" height="68" viewBox="0 0 84 68" fill="none" xmlns="http://www.w3.org/2000/svg">
<path d="M8.66665 67.3333C6.37498 67.3333 4.41387 66.5181 2.78331 64.8875C1.15276 63.257 0.336091 61.2945 0.333313 59V9.00001C0.333313 6.70834 1.14998 4.74723 2.78331 3.11667C4.41665 1.48612 6.37776 0.66945 8.66665 0.666672H75.3333C77.625 0.666672 79.5875 1.48334 81.2208 3.11667C82.8542 4.75 83.6694 6.71112 83.6667 9.00001V59C83.6667 61.2917 82.8514 63.2542 81.2208 64.8875C79.5903 66.5208 77.6278 67.3361 75.3333 67.3333H8.66665ZM17 54.8333H67C68.1805 54.8333 69.1708 54.4333 69.9708 53.6333C70.7708 52.8333 71.1694 51.8445 71.1666 50.6667C71.1666 49.4861 70.7667 48.4972 69.9667 47.7C69.1666 46.9028 68.1778 46.5028 67 46.5H17C15.8194 46.5 14.8305 46.9 14.0333 47.7C13.2361 48.5 12.8361 49.4889 12.8333 50.6667C12.8333 51.8472 13.2333 52.8375 14.0333 53.6375C14.8333 54.4375 15.8222 54.8361 17 54.8333ZM17 38.1667H67C68.1805 38.1667 69.1708 37.7667 69.9708 36.9667C70.7708 36.1667 71.1694 35.1778 71.1666 34C71.1666 32.8195 70.7667 31.8306 69.9667 31.0333C69.1666 30.2361 68.1778 29.8361 67 29.8333H17C15.8194 29.8333 14.8305 30.2333 14.0333 31.0333C13.2361 31.8333 12.8361 32.8222 12.8333 34C12.8333 35.1806 13.2333 36.1708 14.0333 36.9708C14.8333 37.7708 15.8222 38.1695 17 38.1667ZM17 21.5H50.3333C51.5139 21.5 52.5042 21.1 53.3042 20.3C54.1042 19.5 54.5028 18.5111 54.5 17.3333C54.5 16.1528 54.1 15.1639 53.3 14.3667C52.5 13.5695 51.5111 13.1695 50.3333 13.1667H17C15.8194 13.1667 14.8305 13.5667 14.0333 14.3667C13.2361 15.1667 12.8361 16.1556 12.8333 17.3333C12.8333 18.5139 13.2333 19.5042 14.0333 20.3042C14.8333 21.1042 15.8222 21.5028 17 21.5Z" fill="white"/>
</svg>
