<svg width="55" height="55" viewBox="0 0 55 55" fill="none" xmlns="http://www.w3.org/2000/svg">
<path d="M27.6354 46.4583L35.3541 38.8073L27.6354 31.1562L24.7916 34L27.7031 36.9115C26.4392 36.9566 25.2096 36.7535 24.0143 36.3021C22.8191 35.8507 21.7466 35.151 20.7968 34.2031C19.8941 33.3003 19.2052 32.2621 18.7304 31.0885C18.2555 29.9149 18.019 28.7413 18.0208 27.5677C18.0208 26.8003 18.1228 26.033 18.3268 25.2656C18.5309 24.4983 18.8125 23.7535 19.1718 23.0312L16.1927 20.0521C15.4253 21.1806 14.8611 22.3767 14.5 23.6406C14.1388 24.9045 13.9583 26.191 13.9583 27.5C13.9583 29.2153 14.2968 30.908 14.9739 32.5781C15.651 34.2483 16.6441 35.7378 17.9531 37.0469C19.2621 38.3559 20.7291 39.3381 22.3541 39.9935C23.9791 40.649 25.6493 40.9983 27.3645 41.0417L24.7916 43.6146L27.6354 46.4583ZM38.8072 34.9479C39.5746 33.8194 40.1388 32.6233 40.5 31.3594C40.8611 30.0955 41.0416 28.809 41.0416 27.5C41.0416 25.7847 40.7139 24.0803 40.0585 22.3867C39.4031 20.6931 38.4218 19.1926 37.1145 17.8854C35.8055 16.5764 34.3268 15.6059 32.6783 14.974C31.0298 14.342 29.3488 14.026 27.6354 14.026L30.2083 11.3854L27.3645 8.54166L19.6458 16.1927L27.3645 23.8437L30.2083 21L27.2291 18.0208C28.4479 18.0208 29.6892 18.2583 30.9531 18.7331C32.217 19.208 33.3003 19.8959 34.2031 20.7969C35.1059 21.6996 35.7947 22.7378 36.2695 23.9115C36.7444 25.0851 36.9809 26.2587 36.9791 27.4323C36.9791 28.1996 36.878 28.967 36.6758 29.7344C36.4736 30.5017 36.191 31.2465 35.8281 31.9687L38.8072 34.9479ZM27.5 54.5833C23.7534 54.5833 20.2326 53.8719 16.9375 52.4492C13.6423 51.0264 10.776 49.0972 8.3385 46.6615C5.901 44.224 3.97177 41.3576 2.55079 38.0625C1.12982 34.7674 0.418432 31.2465 0.416626 27.5C0.416626 23.7535 1.12802 20.2326 2.55079 16.9375C3.97357 13.6424 5.90281 10.776 8.3385 8.33854C10.776 5.90104 13.6423 3.9718 16.9375 2.55083C20.2326 1.12986 23.7534 0.41847 27.5 0.416664C31.2465 0.416664 34.7673 1.12805 38.0625 2.55083C41.3576 3.97361 44.2239 5.90284 46.6614 8.33854C49.0989 10.776 51.0291 13.6424 52.4518 16.9375C53.8746 20.2326 54.5851 23.7535 54.5833 27.5C54.5833 31.2465 53.8719 34.7674 52.4491 38.0625C51.0263 41.3576 49.0971 44.224 46.6614 46.6615C44.2239 49.099 41.3576 51.0291 38.0625 52.4519C34.7673 53.8746 31.2465 54.5851 27.5 54.5833Z" fill="#0B1D21"/>
</svg>
