<svg xmlns="http://www.w3.org/2000/svg"  class="icon" style="width: 1em; height: 1em;vertical-align: middle;fill:#1f333e;overflow: hidden;" viewBox="0 0 1024 1024" version="1.1"><path d="M128.780015 824.708048 128.780015 199.291952c0-32.286334 11.688203-58.536184 44.094264-58.536184l591.71453 0c32.382525 0 58.776661 26.249851 58.776661 58.536184l0 103.781668c0 24.263613-8.479115 43.662429-32.81436 43.662429-24.358781 0-31.422663-19.398816-31.422663-43.662429l0-98.441033L193.016015 204.632587l0 614.755292 566.136991 0 0-91.062995c0-24.25952 9.912767-35.971259 34.248012-36.762275 20.98187-0.672312 29.964452 10.416234 29.964452 34.656311l0 98.464569c0 32.310893-26.394137 58.560744-58.800197 58.560744L187.580213 883.244232C155.174152 883.244232 128.780015 856.994382 128.780015 824.708048L128.780015 824.708048zM128.780015 824.708048M728.588897 613.311407c0-8.382924 7.907087-19.85521 13.558807-25.362644l46.417169-55.710836L447.428356 532.237927c-17.244756 0-31.235398-14.705933-31.235398-31.494295 0-16.792455 13.990642-29.316699 31.235398-29.316699l341.136517 0-50.802036-49.437969c-5.65172-5.508457-8.28571-11.616572-8.28571-20.022009 0-16.789385 12.286838-23.976064 29.508058-23.976064 8.621355 0 17.291828 5.65172 22.943548 11.140735l104.141872 101.334943c5.65172 5.531993 9.149381 13.126972 9.149381 21.533432 0 8.381901-3.497661 15.972786-9.149381 21.485337l-104.141872 101.334943c-5.65172 5.508457-13.458523 8.909927-22.080901 8.909927C742.600005 643.730207 728.588897 630.127398 728.588897 613.311407L728.588897 613.311407zM728.588897 613.311407" fill="#1f333e"/></svg>