<svg width="66" height="65" viewBox="0 0 66 65" fill="none" xmlns="http://www.w3.org/2000/svg">
<path d="M30.2916 8.12501V5.41668C30.2916 4.64932 30.5516 4.00654 31.0716 3.48834C31.5916 2.97015 32.2344 2.71015 32.9999 2.70834C33.7673 2.70834 34.411 2.96834 34.931 3.48834C35.451 4.00834 35.7101 4.65112 35.7083 5.41668V8.12501C35.7083 8.89237 35.4483 9.53605 34.9283 10.0561C34.4083 10.5761 33.7655 10.8351 32.9999 10.8333C32.2326 10.8333 31.5898 10.5733 31.0716 10.0533C30.5534 9.53334 30.2934 8.89057 30.2916 8.12501ZM30.2916 59.5833V56.875C30.2916 56.1077 30.5516 55.4649 31.0716 54.9467C31.5916 54.4285 32.2344 54.1685 32.9999 54.1667C33.7673 54.1667 34.411 54.4267 34.931 54.9467C35.451 55.4667 35.7101 56.1095 35.7083 56.875V59.5833C35.7083 60.3507 35.4483 60.9944 34.9283 61.5144C34.4083 62.0344 33.7655 62.2935 32.9999 62.2917C32.2326 62.2917 31.5898 62.0317 31.0716 61.5117C30.5534 60.9917 30.2934 60.3489 30.2916 59.5833ZM60.0833 35.2083H57.3749C56.6076 35.2083 55.9648 34.9483 55.4466 34.4283C54.9284 33.9083 54.6684 33.2656 54.6666 32.5C54.6666 31.7327 54.9266 31.0899 55.4466 30.5717C55.9666 30.0535 56.6094 29.7935 57.3749 29.7917H60.0833C60.8506 29.7917 61.4943 30.0517 62.0143 30.5717C62.5343 31.0917 62.7934 31.7345 62.7916 32.5C62.7916 33.2674 62.5316 33.9111 62.0116 34.4311C61.4916 34.9511 60.8488 35.2102 60.0833 35.2083ZM8.62492 35.2083H5.91659C5.14922 35.2083 4.50645 34.9483 3.98825 34.4283C3.47006 33.9083 3.21006 33.2656 3.20825 32.5C3.20825 31.7327 3.46825 31.0899 3.98825 30.5717C4.50825 30.0535 5.15103 29.7935 5.91659 29.7917H8.62492C9.39228 29.7917 10.036 30.0517 10.556 30.5717C11.076 31.0917 11.3351 31.7345 11.3333 32.5C11.3333 33.2674 11.0733 33.9111 10.5533 34.4311C10.0333 34.9511 9.39047 35.2102 8.62492 35.2083ZM53.9895 15.3698L53.0416 16.3177C52.5451 16.8142 51.9249 17.0625 51.181 17.0625C50.4371 17.0625 49.7934 16.7917 49.2499 16.25C48.7534 15.7535 48.4934 15.1333 48.4699 14.3894C48.4464 13.6455 48.6839 13.0018 49.1822 12.4583L50.1978 11.4427C50.6944 10.9011 51.3263 10.6302 52.0937 10.6302C52.861 10.6302 53.5155 10.9011 54.0572 11.4427C54.5989 11.9844 54.8589 12.6389 54.8372 13.4063C54.8155 14.1736 54.533 14.8281 53.9895 15.3698ZM16.8176 52.5417L15.802 53.5573C15.3055 54.099 14.6735 54.3698 13.9062 54.3698C13.1388 54.3698 12.4843 54.099 11.9426 53.5573C11.401 53.0156 11.141 52.3611 11.1626 51.5938C11.1843 50.8264 11.4669 50.1719 12.0103 49.6302L12.9583 48.6823C13.4548 48.1858 14.0759 47.9375 14.8216 47.9375C15.5673 47.9375 16.2101 48.2083 16.7499 48.75C17.2464 49.2465 17.5064 49.8677 17.5299 50.6133C17.5534 51.359 17.316 52.0018 16.8176 52.5417ZM50.1301 53.4896L49.1822 52.5417C48.6857 52.0452 48.4374 51.4249 48.4374 50.6811C48.4374 49.9372 48.7083 49.2935 49.2499 48.75C49.7464 48.2535 50.3676 47.9944 51.1133 47.9727C51.8589 47.9511 52.5017 48.1876 53.0416 48.6823L54.0572 49.6979C54.5989 50.1945 54.8697 50.8264 54.8697 51.5938C54.8697 52.3611 54.5989 53.0156 54.0572 53.5573C53.5155 54.099 52.861 54.359 52.0937 54.3373C51.3263 54.3156 50.6718 54.0331 50.1301 53.4896ZM12.9583 16.3177L11.9426 15.3021C11.401 14.8056 11.1301 14.1736 11.1301 13.4063C11.1301 12.6389 11.401 11.9844 11.9426 11.4427C12.4843 10.9011 13.1388 10.6411 13.9062 10.6627C14.6735 10.6844 15.328 10.967 15.8697 11.5104L16.8176 12.4583C17.3142 12.9549 17.5624 13.576 17.5624 14.3217C17.5624 15.0674 17.2916 15.7101 16.7499 16.25C16.2534 16.7465 15.6332 17.0065 14.8893 17.03C14.1454 17.0535 13.5017 16.8161 12.9583 16.3177ZM32.9999 48.75C28.486 48.75 24.6492 47.1702 21.4895 44.0104C18.3298 40.8507 16.7499 37.0139 16.7499 32.5C16.7499 27.9861 18.3298 24.1493 21.4895 20.9896C24.6492 17.8299 28.486 16.25 32.9999 16.25C37.5138 16.25 41.3506 17.8299 44.5103 20.9896C47.6701 24.1493 49.2499 27.9861 49.2499 32.5C49.2499 37.0139 47.6701 40.8507 44.5103 44.0104C41.3506 47.1702 37.5138 48.75 32.9999 48.75Z" fill="white"/>
</svg>
