<svg width="134" height="58" viewBox="0 0 134 58" fill="none" xmlns="http://www.w3.org/2000/svg">
<path d="M0.92 37.04C9.58133 37.68 16.408 38 21.4 38C22.04 38 22.5733 37.7867 23 37.36C23.4267 36.9333 23.64 36.4 23.64 35.76V33.52H9.88C6.97867 33.52 4.65333 32.6453 2.904 30.896C1.15467 29.1467 0.28 26.8213 0.28 23.92V21.68C0.28 18.7787 1.15467 16.4533 2.904 14.704C4.65333 12.9547 6.97867 12.08 9.88 12.08H31.64V20.4H13.72C13.08 20.4 12.5467 20.6133 12.12 21.04C11.6933 21.4667 11.48 22 11.48 22.64C11.48 23.28 11.6933 23.8133 12.12 24.24C12.5467 24.6667 13.08 24.88 13.72 24.88H25.24C28.1413 24.88 30.4667 25.7547 32.216 27.504C33.9653 29.2533 34.84 31.5787 34.84 34.48V37.04C34.84 39.9413 33.9653 42.2667 32.216 44.016C30.4667 45.7653 28.1413 46.64 25.24 46.64C17.688 46.64 9.58133 46.2133 0.92 45.36V37.04ZM52.78 13.36V46H41.58V22H36.78V13.36H52.78ZM41.58 0.559998H52.78V9.52H41.58V0.559998ZM81.28 43.44C77.1413 44.2933 73.5147 44.72 70.4 44.72H68.16C65.2587 44.72 62.9333 43.8453 61.184 42.096C59.4347 40.3467 58.56 38.0213 58.56 35.12V22.32C58.56 19.12 59.456 16.624 61.248 14.832C63.0827 12.9973 65.6 12.08 68.8 12.08H92.48V47.92C92.48 50.8213 91.6053 53.1467 89.856 54.896C88.1067 56.6453 85.7813 57.52 82.88 57.52C76.1813 57.52 68.7147 57.0933 60.48 56.24V47.92C68.6293 48.56 74.816 48.88 79.04 48.88C79.68 48.88 80.2133 48.6667 80.64 48.24C81.0667 47.8133 81.28 47.28 81.28 46.64V43.44ZM73.6 36.08C76.288 36.08 78.848 35.8667 81.28 35.44V20.72H72.32C70.6133 20.72 69.76 21.5733 69.76 23.28V33.84C69.76 34.48 69.9733 35.0133 70.4 35.44C70.8267 35.8667 71.36 36.08 72 36.08H73.6ZM117.768 20.72C115.506 20.72 112.946 21.1467 110.088 22V46H98.8875V12.08H108.808L109.448 15.28C111.453 13.9573 113.501 12.9973 115.592 12.4C117.725 11.76 119.517 11.44 120.968 11.44H123.848C126.749 11.44 129.074 12.3147 130.824 14.064C132.573 15.8133 133.448 18.1387 133.448 21.04V46H122.248V22.96C122.248 22.32 122.034 21.7867 121.608 21.36C121.181 20.9333 120.648 20.72 120.008 20.72H117.768Z" fill="#19202C"/>
</svg>
